<!-- Shape: g15 -->
<svg xmlns:xlink="http://www.w3.org/1999/xlink" fill="none" width="189" xmlns="http://www.w3.org/2000/svg" style="-webkit-print-color-adjust:exact" id="screenshot-59e7e158-ee5b-803a-8002-f1d5f0204073" version="1.1" viewBox="629 251 189 189" height="189">
  <g id="shape-59e7e158-ee5b-803a-8002-f1d5f0204073" style="fill:#000000" rx="0" ry="0">
    <g id="shape-59e7e158-ee5b-803a-8002-f1d5f021cc1d">
      <g class="fills" id="fills-59e7e158-ee5b-803a-8002-f1d5f021cc1d">
        <path rx="0" ry="0" style="fill:#ffffff;fill-opacity:1" d="M629.000,345.500L629.000,251.000L723.500,251.000L818.000,251.000L818.000,345.500L818.000,440.000L723.500,440.000L629.000,440.000Z">
        </path>
      </g>
    </g>
    <g id="shape-59e7e158-ee5b-803a-8002-f1d5f023165d">
      <g class="fills" id="fills-59e7e158-ee5b-803a-8002-f1d5f023165d">
        <path rx="0" ry="0" style="fill:#000000;fill-opacity:1" d="M745.518,320.473L756.008,312.604L756.008,307.884C756.008,305.288,755.919,303.164,755.810,303.164C755.701,303.164,750.843,306.838,745.015,311.329L734.417,319.493L729.803,315.605C727.497,313.661,725.625,312.045,724.454,311.042C722.067,308.997,717.263,306.950,713.861,305.955C711.872,305.373,709.369,305.274,693.543,305.153C678.889,305.040,675.495,305.106,675.498,305.506C675.504,306.457,677.716,309.848,679.435,311.542C680.389,312.483,681.989,313.699,682.991,314.244C686.438,316.120,688.435,316.394,698.677,316.394C709.030,316.394,713.920,316.902,718.995,318.505C721.557,319.315,722.737,320.040,728.106,324.105C731.498,326.673,734.443,328.677,734.651,328.559C734.859,328.440,739.749,324.801,745.518,320.473ZL745.518,320.473Z">
        </path>
      </g>
    </g>
    <g id="shape-59e7e158-ee5b-803a-8002-f1d5f023e4fb">
      <g class="fills" id="fills-59e7e158-ee5b-803a-8002-f1d5f023e4fb">
        <path rx="0" ry="0" style="fill:#000000;fill-opacity:1" d="M755.838,345.020C755.939,344.756,755.977,340.600,755.921,335.785L755.819,327.031L751.755,330.070L747.692,333.109L747.692,339.053C747.692,342.321,747.805,345.109,747.944,345.248C748.083,345.387,749.874,345.500,751.925,345.500C754.592,345.500,755.706,345.363,755.838,345.020ZZ">
        </path>
      </g>
    </g>
    <g id="shape-59e7e158-ee5b-803a-8002-f1d5f024d2d9">
      <g class="fills" id="fills-59e7e158-ee5b-803a-8002-f1d5f024d2d9">
        <path rx="0" ry="0" style="fill:#000000;fill-opacity:1" d="M713.483,358.232C721.963,355.849,728.034,349.965,730.586,341.655L731.593,338.377L733.018,339.506L734.444,340.635L749.857,329.022C758.333,322.634,765.340,317.350,765.427,317.279C765.513,317.208,762.792,317.152,759.379,317.154L753.173,317.158L743.912,324.140C738.818,327.980,734.549,331.126,734.424,331.129C734.094,331.139,729.286,327.266,727.519,325.634C726.687,324.867,725.490,324.206,724.659,323.665C723.213,322.724,717.074,320.055,717.074,320.383C717.074,320.470,717.567,321.351,718.170,322.342C720.043,325.418,720.584,327.533,720.614,331.892C720.663,339.088,718.198,343.671,712.916,346.204C710.962,347.141,710.447,347.209,704.371,347.326L697.904,347.451L697.686,344.113C697.403,339.794,696.867,338.250,694.888,336.049C692.977,333.923,690.545,332.677,688.060,332.550L686.267,332.459L686.168,345.811L686.068,359.162L698.642,359.016C708.958,358.895,711.622,358.754,713.483,358.232ZZ">
        </path>
      </g>
    </g>
    <g id="shape-59e7e158-ee5b-803a-8002-f1d5f02551a2">
      <g class="fills" id="fills-59e7e158-ee5b-803a-8002-f1d5f02551a2">
        <path rx="0" ry="0" style="fill:#000000;fill-opacity:1" d="M748.456,373.944L748.465,370.637L750.249,373.944C751.930,377.060,752.105,377.252,753.265,377.252L754.496,377.252L754.496,372.527L754.496,367.802L753.362,367.802L752.228,367.802L752.209,370.731L752.190,373.661L750.693,370.731C749.257,367.924,749.140,367.802,747.876,367.802L746.558,367.802L746.558,372.527L746.558,377.252L747.503,377.252C748.438,377.252,748.448,377.218,748.456,373.944ZZ">
        </path>
      </g>
    </g>
    <g id="shape-59e7e158-ee5b-803a-8002-f1d5f02625ba">
      <g class="fills" id="fills-59e7e158-ee5b-803a-8002-f1d5f02625ba">
        <path rx="0" ry="0" style="fill:#000000;fill-opacity:1" d="M745.046,376.496C745.046,375.992,744.794,375.740,744.290,375.740C743.593,375.740,743.534,375.488,743.534,372.527C743.534,369.566,743.593,369.314,744.290,369.314C744.794,369.314,745.046,369.062,745.046,368.558C745.046,367.880,744.794,367.802,742.589,367.802C740.384,367.802,740.132,367.880,740.132,368.558C740.132,369.062,740.384,369.314,740.888,369.314C741.585,369.314,741.644,369.566,741.644,372.527C741.644,375.488,741.585,375.740,740.888,375.740C740.384,375.740,740.132,375.992,740.132,376.496C740.132,377.174,740.384,377.252,742.589,377.252C744.794,377.252,745.046,377.174,745.046,376.496ZZ">
        </path>
      </g>
    </g>
    <g id="shape-59e7e158-ee5b-803a-8002-f1d5f026c0de">
      <g class="fills" id="fills-59e7e158-ee5b-803a-8002-f1d5f026c0de">
        <path rx="0" ry="0" style="fill:#000000;fill-opacity:1" d="M718.586,374.646C718.586,372.619,718.719,371.990,719.184,371.811C720.691,371.233,720.854,371.487,720.854,374.417C720.854,377.189,720.875,377.252,721.799,377.252C722.707,377.252,722.744,377.159,722.744,374.871C722.744,372.433,723.143,371.582,724.288,371.582C725.062,371.582,725.424,374.155,725.385,375.267C725.306,377.492,725.356,377.267,726.146,377.252C726.842,377.239,726.917,377.290,726.902,374.066C726.883,369.898,724.659,368.769,722.616,370.658C721.902,371.318,721.522,370.697,720.537,370.002C719.871,369.533,718.848,370.409,718.397,370.892C717.984,371.333,718.113,369.982,718.113,369.982L716.696,370.011L716.696,373.631C716.696,377.241,716.699,377.252,717.641,377.252C718.558,377.252,718.586,377.174,718.586,374.646ZZ">
        </path>
      </g>
    </g>
    <g id="shape-59e7e158-ee5b-803a-8002-f1d5f0278800">
      <g class="fills" id="fills-59e7e158-ee5b-803a-8002-f1d5f0278800">
        <path rx="0" ry="0" style="fill:#000000;fill-opacity:1" d="M702.332,374.871C702.332,372.308,702.724,371.582,704.109,371.582C704.939,371.582,704.978,371.711,704.978,374.417C704.978,377.201,704.995,377.252,705.938,377.252L706.897,377.252L706.788,373.958C706.686,370.863,706.620,370.631,705.704,370.118C704.847,369.637,704.586,369.644,703.531,370.170C702.871,370.499,702.332,370.611,702.332,370.419C702.332,370.227,701.907,370.070,701.387,370.070C700.445,370.070,700.442,370.083,700.442,373.661C700.442,377.239,700.445,377.252,701.387,377.252C702.295,377.252,702.332,377.159,702.332,374.871ZZ">
        </path>
      </g>
    </g>
    <g id="shape-59e7e158-ee5b-803a-8002-f1d5f02810ff">
      <g class="fills" id="fills-59e7e158-ee5b-803a-8002-f1d5f02810ff">
        <path rx="0" ry="0" style="fill:#000000;fill-opacity:1" d="M689.248,376.890C690.739,376.323,691.480,374.491,691.288,371.842C691.152,369.955,690.953,369.430,690.092,368.690C689.223,367.942,688.645,367.802,686.435,367.802L683.810,367.802L683.810,372.527L683.810,377.252L686.053,377.252C687.287,377.252,688.725,377.089,689.248,376.890ZZ">
        </path>
      </g>
    </g>
    <g id="shape-59e7e158-ee5b-803a-8002-f1d5f0288148">
      <g class="fills" id="fills-59e7e158-ee5b-803a-8002-f1d5f0288148">
        <path rx="0" ry="0" style="fill:#000000;fill-opacity:1" d="M763.076,376.671C764.147,375.969,764.176,375.512,763.181,374.979C762.589,374.662,762.284,374.702,761.831,375.155C761.100,375.886,759.783,375.907,758.821,375.203C758.244,374.782,758.087,374.209,758.087,372.527C758.087,370.845,758.244,370.272,758.821,369.851C759.771,369.156,761.098,369.166,761.806,369.874C762.301,370.369,762.468,370.353,763.238,369.729L764.109,369.024L762.799,368.203C760.881,367.002,758.484,367.311,757.020,368.949C756.002,370.089,755.938,370.343,756.073,372.739C756.177,374.576,756.422,375.531,756.933,376.096C758.321,377.630,761.201,377.899,763.076,376.671ZZ">
        </path>
      </g>
    </g>
    <g id="shape-59e7e158-ee5b-803a-8002-f1d5f0293ca8">
      <g class="fills" id="fills-59e7e158-ee5b-803a-8002-f1d5f0293ca8">
        <path rx="0" ry="0" style="fill:#000000;fill-opacity:1" d="M734.745,376.286C735.869,375.010,735.907,372.458,734.824,371.080C733.827,369.812,731.899,369.434,730.396,370.212C729.054,370.905,728.792,371.469,728.792,373.661C728.792,375.888,729.083,376.490,730.455,377.105C732.006,377.800,733.698,377.477,734.745,376.286ZZ">
        </path>
      </g>
    </g>
    <g id="shape-59e7e158-ee5b-803a-8002-f1d5f0298c2e">
      <g class="fills" id="fills-59e7e158-ee5b-803a-8002-f1d5f0298c2e">
        <path rx="0" ry="0" style="fill:#000000;fill-opacity:1" d="M713.577,377.212L714.806,377.276L714.806,374.513C714.806,372.646,714.619,371.483,714.228,370.925C713.442,369.803,711.488,369.489,709.764,370.209C708.163,370.878,708.099,371.027,709.160,371.595C709.738,371.904,710.080,371.897,710.478,371.566C711.167,370.995,712.916,371.418,712.916,372.156C712.916,372.524,712.534,372.716,711.800,372.716C710.284,372.716,708.821,373.433,708.542,374.313C707.931,376.238,709.431,377.843,711.404,377.374C711.924,377.250,712.902,377.178,713.577,377.212ZZ">
        </path>
      </g>
    </g>
    <g id="shape-59e7e158-ee5b-803a-8002-f1d5f02a00fa">
      <g class="fills" id="fills-59e7e158-ee5b-803a-8002-f1d5f02a00fa">
        <path rx="0" ry="0" style="fill:#000000;fill-opacity:1" d="M695.281,379.206C695.851,378.576,696.575,376.970,698.589,371.865L699.297,370.070L698.389,370.070C697.650,370.070,697.357,370.405,696.820,371.865C696.456,372.853,696.042,373.798,695.898,373.965C695.755,374.133,695.314,373.367,694.919,372.264C694.317,370.585,694.034,370.240,693.179,370.141L692.159,370.023L693.474,373.354C694.953,377.098,694.852,378.386,693.079,378.386C692.378,378.386,692.126,378.586,692.126,379.142C692.126,379.747,692.378,379.898,693.390,379.898C694.136,379.898,694.912,379.614,695.281,379.206ZZ">
        </path>
      </g>
    </g>
    <g id="shape-59e7e158-ee5b-803a-8002-f1d5f02a942b">
      <g class="fills" id="fills-59e7e158-ee5b-803a-8002-f1d5f02a942b">
        <path rx="0" ry="0" style="fill:#ffffff;fill-opacity:1" d="M686.078,372.527L686.078,369.692L687.166,369.692C688.611,369.692,689.291,370.599,689.291,372.527C689.291,374.455,688.611,375.362,687.166,375.362L686.078,375.362Z">
        </path>
      </g>
    </g>
    <g id="shape-59e7e158-ee5b-803a-8002-f1d5f02ac969">
      <g class="fills" id="fills-59e7e158-ee5b-803a-8002-f1d5f02ac969">
        <path rx="0" ry="0" style="fill:#ffffff;fill-opacity:1" d="M730.834,375.213C730.723,374.923,730.685,374.030,730.751,373.228C730.857,371.936,730.995,371.757,731.964,371.646C732.585,371.575,733.195,371.739,733.376,372.024C733.750,372.614,733.804,374.289,733.477,375.142C733.190,375.890,731.115,375.945,730.834,375.213ZZ">
        </path>
      </g>
    </g>
    <g id="shape-59e7e158-ee5b-803a-8002-f1d5f02b66e1">
      <g class="fills" id="fills-59e7e158-ee5b-803a-8002-f1d5f02b66e1">
        <path rx="0" ry="0" style="fill:#ffffff;fill-opacity:1" d="M710.397,375.526C710.113,374.787,710.539,374.355,711.876,374.025C712.759,373.807,712.916,373.887,712.916,374.552C712.916,375.843,710.828,376.650,710.397,375.526ZZ">
        </path>
      </g>
    </g>
  </g>
</svg>