<?xml version="1.0" encoding="UTF-8"?>
<!DOCTYPE svg PUBLIC "-//W3C//DTD SVG 1.1//EN" "http://www.w3.org/Graphics/SVG/1.1/DTD/svg11.dtd">
<!-- Creator: CorelDRAW 2021 (64-Bit) -->
<svg xmlns="http://www.w3.org/2000/svg" xml:space="preserve" width="213.355mm" height="227.344mm" version="1.1" style="shape-rendering:geometricPrecision; text-rendering:geometricPrecision; image-rendering:optimizeQuality; fill-rule:evenodd; clip-rule:evenodd"
viewBox="0 0 561 597.78"
 xmlns:xlink="http://www.w3.org/1999/xlink"
 xmlns:xodm="http://www.corel.com/coreldraw/odm/2003">
 <defs>
  <style type="text/css">
   <![CDATA[
    .fil0 {fill:#4B4B4D}
    .fil1 {fill:#4B4B4D;fill-rule:nonzero}
   ]]>
  </style>
 </defs>
 <g id="Capa_x0020_1">
  <metadata id="CorelCorpID_0Corel-Layer"/>
  <path class="fil0" d="M280.5 147.63c18.94,0 34.29,15.35 34.29,34.29 0,18.94 -15.35,34.29 -34.29,34.29 -18.94,0 -34.29,-15.35 -34.29,-34.29 0,-18.94 15.35,-34.29 34.29,-34.29z"/>
  <path class="fil0" d="M428.61 276.8l4.78 37.07 13.67 -13.89c1.46,-2.42 1.22,-4.96 -0.22,-7.6l-16.5 -16.39c-0.67,-0.48 -1.86,-0.16 -1.74,0.81zm-34.82 -46.7l18.23 0c20.95,2.88 31.14,8.93 45.2,21.89 13.24,12.21 29.59,25.75 29.69,45.26 0.05,10.44 -6.13,20.53 -13.92,27.95 -10.33,9.85 -22.43,19.66 -33.19,29.59l18.01 134.35c0.31,3.85 -1.14,6.13 -4.45,6.72l-27.02 0c-3.07,-0.32 -4.81,-1.84 -5.21,-4.55l-14.87 -110.47c-1.11,-5.96 -5.29,-8.83 -12.48,-8.79 -7.19,-0.04 -11.37,2.83 -12.48,8.79l-14.87 110.47c-0.4,2.71 -2.13,4.23 -5.21,4.55l-6.93 0c0.82,-2.47 1.07,-5.23 0.68,-8.13l-12.52 -93.35 5.31 -39.59c-0.88,-0.81 -1.77,-1.63 -2.67,-2.44 7.37,-6.42 14.8,-12.77 21.87,-19.51 9.69,-9.24 17.26,-21.92 17.19,-35.65 -0.12,-23.44 -17.25,-38.37 -33.09,-52.97 -1.72,-1.58 -3.39,-3.1 -5.03,-4.56 8.05,-4.91 16.8,-7.83 29.51,-9.57l18.23 0z"/>
  <path class="fil0" d="M131.52 276.8l-4.78 37.07 -13.67 -13.89c-1.46,-2.42 -1.22,-4.96 0.22,-7.6l16.5 -16.39c0.67,-0.48 1.86,-0.16 1.74,0.81zm34.82 -46.7l18.23 0c12.97,1.79 21.82,4.79 30.02,9.89 -1.53,1.36 -3.08,2.77 -4.67,4.24 -15.84,14.61 -32.97,29.53 -33.09,52.97 -0.07,13.72 7.5,26.41 17.19,35.65 6.93,6.61 14.21,12.83 21.43,19.12 -1.04,0.94 -2.08,1.88 -3.1,2.82l5.74 42.83 -12.08 90.12c-0.39,2.9 -0.14,5.66 0.68,8.13l-7.79 0c-3.07,-0.32 -4.81,-1.84 -5.21,-4.55l-14.87 -110.47c-1.11,-5.96 -5.29,-8.83 -12.48,-8.79 -7.19,-0.04 -11.37,2.83 -12.48,8.79l-14.87 110.47c-0.4,2.71 -2.13,4.23 -5.21,4.55l-27.02 0c-3.31,-0.6 -4.75,-2.87 -4.45,-6.72l18.01 -134.35c-10.76,-9.92 -22.85,-19.73 -33.19,-29.59 -7.79,-7.42 -13.97,-17.51 -13.92,-27.95 0.1,-19.51 16.45,-33.06 29.69,-45.26 14.05,-12.96 24.25,-19.01 45.2,-21.89l18.23 0z"/>
  <path class="fil0" d="M245.68 276.8l-4.78 37.07 -13.67 -13.89c-1.46,-2.42 -1.22,-4.96 0.22,-7.6l16.5 -16.39c0.67,-0.48 1.86,-0.16 1.74,0.81zm69.63 0l4.78 37.07 13.67 -13.89c1.46,-2.42 1.22,-4.96 -0.22,-7.6l-16.5 -16.39c-0.67,-0.48 -1.86,-0.16 -1.74,0.81zm-34.82 -46.7l18.23 0c20.95,2.88 31.14,8.93 45.2,21.89 13.24,12.21 29.59,25.75 29.69,45.26 0.05,10.44 -6.13,20.53 -13.92,27.95 -10.33,9.85 -22.43,19.66 -33.19,29.59l18.01 134.35c0.31,3.85 -1.14,6.13 -4.45,6.72l-27.02 0c-3.07,-0.32 -4.81,-1.84 -5.21,-4.55l-14.87 -110.47c-1.11,-5.96 -5.29,-8.83 -12.48,-8.79 -7.19,-0.04 -11.37,2.83 -12.48,8.79l-14.87 110.47c-0.4,2.71 -2.13,4.23 -5.21,4.55l-27.02 0c-3.31,-0.6 -4.75,-2.87 -4.45,-6.72l18.01 -134.35c-10.76,-9.92 -22.85,-19.73 -33.19,-29.59 -7.79,-7.42 -13.97,-17.51 -13.92,-27.95 0.1,-19.51 16.45,-33.06 29.69,-45.26 14.05,-12.96 24.25,-19.01 45.2,-21.89l18.23 0z"/>
  <path class="fil0" d="M393.47 147.63c18.94,0 34.29,15.35 34.29,34.29 0,18.94 -15.35,34.29 -34.29,34.29 -18.94,0 -34.29,-15.35 -34.29,-34.29 0,-18.94 15.35,-34.29 34.29,-34.29z"/>
  <path class="fil0" d="M166.88 147.63c18.94,0 34.29,15.35 34.29,34.29 0,18.94 -15.35,34.29 -34.29,34.29 -18.94,0 -34.29,-15.35 -34.29,-34.29 0,-18.94 15.35,-34.29 34.29,-34.29z"/>
  <path class="fil0" d="M162.02 122.2c3.96,-29.71 30.02,-44.38 50.24,-43.1 7.29,0.12 6.06,10.89 0.41,11.06 -19.26,-0.09 -35.82,12.64 -39.15,31.96 -0.46,8.72 -11.97,6.71 -11.49,0.08z"/>
  <path class="fil0" d="M397.02 122.2c-3.96,-29.71 -30.02,-44.38 -50.24,-43.1 -7.29,0.12 -6.06,10.89 -0.41,11.06 19.26,-0.09 35.82,12.64 39.15,31.96 0.46,8.72 11.97,6.71 11.49,0.08z"/>
  <path class="fil1" d="M277.66 80.28c-2.26,1.45 -5.28,0.8 -6.74,-1.47 -1.45,-2.26 -0.8,-5.28 1.47,-6.74l0.25 -0.16 0.04 -0.03 0.2 -0.14 0.08 -0.06 0.16 -0.11 0.12 -0.09 0.12 -0.09 0.16 -0.12 0.08 -0.06 0.2 -0.15 0.04 -0.03 0.23 -0.18 0 -0 0.23 -0.18 0.04 -0.03 0.19 -0.15 0.08 -0.07 0.15 -0.12 0.11 -0.1 0.11 -0.09 0.15 -0.13 0.07 -0.06 0.18 -0.17 0.03 -0.03 0.22 -0.2 0 -0 0.21 -0.2 0.04 -0.04 0.17 -0.17 0.07 -0.07 0.13 -0.14 0.11 -0.11 0.1 -0.1 0.14 -0.15 0.06 -0.07 0.2 -0.22 0.2 -0.22 0.01 -0.01 0.19 -0.21 0.04 -0.04 0.15 -0.18 0.07 -0.08 0.01 -0.01 0.21 -0.25 0.09 -0.11 0.13 -0.16 0.06 -0.07 0.16 -0.2 0.02 -0.03 0.18 -0.24 0.01 -0.01 0.17 -0.23 0.04 -0.05 0.14 -0.19 0.07 -0.09 0.11 -0.15 0.1 -0.13 0.08 -0.11 0.12 -0.18 0.05 -0.07 0.15 -0.22 0.02 -0.03 0.17 -0.25 0.01 -0.01 0.16 -0.24 0.04 -0.06 0.13 -0.2 0.06 -0.1 0.1 -0.16 0.09 -0.14 0.07 -0.12 0.11 -0.19 0.04 -0.07 0.14 -0.24 0.02 -0.03 0.15 -0.27 0.01 -0.02 0.14 -0.25 0.03 -0.06 0.11 -0.21 0.06 -0.11 0.09 -0.16 0.08 -0.15 0.06 -0.12 0.1 -0.2 0.04 -0.07 0.13 -0.25 0.01 -0.03 0.14 -0.28 0.01 -0.02 0.13 -0.26 0.03 -0.07 0.1 -0.22 0.05 -0.12 0.08 -0.17 0.08 -0.17 0.05 -0.12 0.1 -0.22 0.03 -0.07 0.12 -0.27 0.01 -0.02 0.12 -0.29 0.01 -0.02 0.11 -0.27 0.03 -0.07 0.09 -0.22 0.05 -0.12 0.07 -0.17 0.07 -0.17 0.05 -0.12 0.09 -0.23 0.03 -0.07 0.11 -0.28 0.01 -0.02 0.11 -0.3 0.01 -0.03 0.1 -0.27c0.39,-1.09 0.75,-2.21 1.07,-3.35 3.32,-11.62 3.26,-25.33 2.38,-35.79 -0.24,-2.91 -0.35,-3.99 -0.43,-4.88 -0.61,-6.42 -0.99,-10.35 2.54,-12.1 4.3,-2.12 7.44,2.14 13.08,13.56 5.06,10.23 10.36,26.83 12.72,42.91 1.91,13.02 1.91,25.89 -1.64,35.22 -4.55,12 -12.81,19.99 -22.18,24.13 -6.31,2.79 -13.15,3.82 -19.7,3.13 -6.62,-0.69 -12.97,-3.13 -18.28,-7.27 -7.09,-5.54 -12.25,-14.04 -13.55,-25.36 -0.03,-0.25 -0.04,-0.49 -0.03,-0.74 -0.03,-1.28 -0.01,-2.48 0.06,-3.6 0.74,-11.2 6.21,-18.77 13.17,-23.6 6.69,-4.64 14.8,-6.64 21.23,-6.86 1.21,-0.04 2.33,-0.03 3.33,0.04 2.47,0.15 4.4,2.12 4.56,4.53l0 0.02 0 0 0 0.02 0 0.02 0 0.02 0 0.02 0 0.02 0 0.02 0 0.01 0 0.01 0 0.02 0 0.02 0 0.02 0 0.02 0 0.02 0 0.01 0 0.01 0 0.02 0 0.02 0 0.02 0 0.02 0 0.02 0 0.01 0 0.01 0 0.02 -0 0.02 0 0.02 0 0.02 -0 0.02 0 0.02 0 0 -0 0.02 -0 0.02 0 0.02 -0 0.02 -0 0.02 -0 0.02c-0.17,2.69 -2.49,4.73 -5.17,4.56l-0.04 -0 -0.04 -0 -0.04 -0 -0.04 -0 -0.04 -0 -0.04 -0 -0.04 -0 -0.04 -0 -0 0 -0.04 -0 -0.04 -0 -0.04 -0 -0.04 -0 -0.04 -0 -0.04 -0 -0.04 -0 -0 0 -0.04 -0 -0.04 -0 -0.04 -0 -0 0 -0.04 -0 -0.04 -0 -0.04 -0 -0 0 -0.04 -0 -0.04 -0 -0.04 -0 -0 0 -0.04 0 -0.04 -0 -0.04 -0 -0.04 -0 -0 0 -0.04 0 -0 0 -0.04 -0 -0.04 0 -0.04 -0 -0.04 0 -0 0 -0.04 -0 -0.04 0 -0.04 0 -0.04 -0 -0 0 -0.04 0 -0 0 -0.04 0 -0 0 -0.04 0 -0.04 0 -0.04 0 -0.04 0 -0 0 -0.04 0 -0 0 -0.04 0 -0.04 0 -0.04 0 -0.04 0 -0 0 -0.04 0 -0 0 -0.04 0 -0.04 0 -0.04 0 -0.04 0 -0 0 -0.04 0 -0 0 -0.04 0 -0.04 0 -0.04 0 -0.04 0 -0 0 -0.04 0 -0.04 0 -0.04 0 -0.04 0 -0.04 0 -0.04 0c-4.87,0.17 -10.99,1.66 -16,5.14 -4.74,3.29 -8.47,8.48 -8.97,16.19 -0.06,0.9 -0.08,1.8 -0.06,2.69l0.05 0.39 0.05 0.39 0.06 0.39 0.06 0.39 0.06 0.38 0 0 0.07 0.38 0 0 0.07 0.38 0.08 0.37 0.08 0.37 0.08 0.37 0.09 0.36 0.09 0.36 0.09 0.36 0 0 0.1 0.35 0 0 0.1 0.35 0.11 0.35 0 0 0.11 0.34 0.11 0.34 0.12 0.34 0.12 0.33 0.12 0.33 0.13 0.33 0.13 0.32 0.13 0.32 0.14 0.32 0.14 0.31 0 0 0.14 0.31 0.14 0.31 0 0 0.15 0.3 0.15 0.3 0 0 0.15 0.3 0 0 0.16 0.29 0.16 0.29 0 0 0.16 0.29 0.17 0.28 0 0 0.17 0.28 0.17 0.28 0.17 0.27 0.18 0.27 0.18 0.27 0.18 0.27 0.19 0.26 0.19 0.26 0.19 0.25 0.19 0.25 0.2 0.25 0.2 0.25 0.2 0.24 0.2 0.24 0.21 0.23 0.21 0.23 0.21 0.23 0.22 0.22 0.22 0.22 0.22 0.22 0.22 0.22 0.22 0.21 0.23 0.21 0.23 0.21 0.23 0.2 0.23 0.2 0.23 0.2 0.24 0.19 0.24 0.19c3.82,2.98 8.44,4.74 13.28,5.25l0.23 0.02 0.23 0.02 0.23 0.02 0.23 0.02 0.23 0.01 0.23 0.01 0.23 0.01 0.23 0.01 0.23 0.01 0.23 0.01 0.23 0 0.23 0 0.23 0 0.23 -0 0.23 -0 0.23 -0.01 0 0 0.23 -0.01 0.23 -0.01 0.23 -0.01 0.23 -0.01 0.23 -0.01 0.23 -0.02 0.23 -0.02 0.23 -0.02 0.23 -0.02 0.23 -0.02 0.23 -0.03 0.23 -0.03 0.23 -0.03 0.23 -0.03 0.23 -0.03 0.23 -0.04 0.23 -0.04 0 0 0.23 -0.04 0.23 -0.04 0 0 0.23 -0.04 0.23 -0.04 0.23 -0.05 0 0 0.23 -0.05 0 0 0.23 -0.05 0 0 0.23 -0.05 0.23 -0.05 0 0 0.23 -0.06 0.23 -0.06 0.23 -0.06 0.23 -0.06 0.23 -0.06 0 0 0.23 -0.07 0 0 0.23 -0.07 0 0 0.23 -0.07 0 0 0.23 -0.07 0.23 -0.07 0.23 -0.08 0.23 -0.08 0.23 -0.08 0.23 -0.08 0.23 -0.08 0.23 -0.09 0.23 -0.09 0.23 -0.09 0.22 -0.09 0.22 -0.09 0.22 -0.1 0.22 -0.1 0.33 -0.15 0.33 -0.15 0.33 -0.16 0.33 -0.16 0.33 -0.17 0.33 -0.17 0.33 -0.18 0.32 -0.18 0.32 -0.19 0.32 -0.19 0.32 -0.2 0.32 -0.2 0.32 -0.2 0.32 -0.21 0.31 -0.21 0.31 -0.22 0.31 -0.22 0.31 -0.23 0.31 -0.23 0.3 -0.24 0.3 -0.24 0.3 -0.24 0.3 -0.25 0.29 -0.25 0.29 -0.26 0 -0 0.29 -0.26 0.29 -0.27 0 -0 0.28 -0.27 0 -0 0.28 -0.27 0.28 -0.28 0.28 -0.28 0.27 -0.29 0.27 -0.29 0 -0 0.27 -0.3 0.27 -0.3 0.26 -0.31 0 -0 0.26 -0.31 0.26 -0.32 0.25 -0.32 0.25 -0.32 0 -0 0.25 -0.33 0 -0 0.25 -0.33 0 -0 0.24 -0.34 0 -0 0.24 -0.34 0 -0 0.24 -0.35 0 -0 0.23 -0.35 0 -0 0.23 -0.36 0.23 -0.36 0.22 -0.37 0.22 -0.37 0.22 -0.37 0 -0 0.21 -0.38 0 -0 0.21 -0.38 0.21 -0.39 0.2 -0.39 0.2 -0.4 0.2 -0.4 0.19 -0.41 0.19 -0.41 0.18 -0.42 0.18 -0.42 0.18 -0.42 0 -0 0.17 -0.43 0.17 -0.43 0.13 -0.36 0.13 -0.36 0 -0 0.12 -0.37 0.12 -0.37 0 -0 0.12 -0.38 0.11 -0.38 0 -0 0.11 -0.39 0.1 -0.39 0.1 -0.4 0.1 -0.4 0 -0 0.09 -0.41 0 -0 0.09 -0.41 0.08 -0.42 0 -0 0.08 -0.42 0.08 -0.43 0 -0 0.07 -0.43 0 -0 0.07 -0.43 0.06 -0.44 0.06 -0.44 0 -0 0.05 -0.44 0.05 -0.45 0.05 -0.45 0.04 -0.46 0 -0 0.04 -0.46 0.04 -0.46 0.03 -0.47 0 -0 0.03 -0.47 0 -0 0.03 -0.47 0.02 -0.48 0.02 -0.48 0.02 -0.48 0 -0 0.01 -0.48 0 -0 0.01 -0.49 0 -0 0.01 -0.49 0 -0.49 0 -0 0 -0.5 -0 -0.5 0 -0 -0.01 -0.5 -0.01 -0.5 -0.01 -0.51 -0.02 -0.51 -0.02 -0.51 0 -0 -0.02 -0.51 -0.02 -0.51 0 -0 -0.03 -0.52 -0.03 -0.52 -0.03 -0.52 -0.04 -0.52 -0.04 -0.52 0 -0 -0.04 -0.53 -0.04 -0.53 -0.05 -0.53 -0.05 -0.53 0 -0 -0.05 -0.53 -0.06 -0.53 -0.06 -0.54 -0.06 -0.54 -0.06 -0.54 -0.07 -0.54 -0.07 -0.54 -0.07 -0.54 -0.07 -0.54 -0.08 -0.54 -0.08 -0.54c-1.61,-10.98 -4.65,-22.16 -7.98,-31.07l0.01 0.43 0 0.43 0 0.43 0 0.44 0 0.44 -0 0.44 -0 0.44 -0 0.44 -0.01 0.44 -0.01 0.44 -0.01 0.44 0 0 -0.01 0.44 0 0 -0.01 0.44 0 0 -0.01 0.45 -0.01 0.45 -0.02 0.45 0 0 -0.02 0.45 0 0 -0.02 0.45 0 0 -0.02 0.45 0 0 -0.02 0.45 0 0 -0.02 0.45 0 0 -0.03 0.45 -0.03 0.45 -0.03 0.45 -0.03 0.45 -0.03 0.45 0 0 -0.04 0.45 0 0 -0.04 0.45 -0.04 0.45 -0.04 0.45 0 0 -0.04 0.45 -0.05 0.46 -0.05 0.45 0 0 -0.05 0.45 -0.05 0.45 0 0 -0.05 0.45 -0.06 0.45 0 0 -0.06 0.45 0 0 -0.06 0.45 0 0 -0.06 0.45 -0.07 0.45 -0.07 0.45 -0.07 0.45 -0.07 0.45 -0.07 0.45 0 0 -0.08 0.45 -0.08 0.45 -0.08 0.45 -0.08 0.45 -0.09 0.45 -0.09 0.45 -0.09 0.45 -0.09 0.45 -0.1 0.44 -0.1 0.44 -0.1 0.44 -0.1 0.44 -0.1 0.44 -0.11 0.44 -0.11 0.44 -0.11 0.44 -0.12 0.44 -0.12 0.43 -0.12 0.43c-2.85,9.98 -7.91,18.84 -16.39,24.32z"/>
  <path class="fil1" d="M-0 597.18l0 -53.35 35.84 0 0 9.09 -25.47 0 0 13.75 21.19 0 0 8.42 -21.19 0 0 22.09 -10.37 0zm65.67 -8.79c2.45,0 4.52,-0.5 6.2,-1.5 1.68,-1 3.03,-2.3 4.06,-3.91 1.03,-1.6 1.75,-3.44 2.18,-5.52 0.43,-2.08 0.64,-4.22 0.64,-6.42l0 -27.2 10.29 0 0 27.2c0,3.66 -0.44,7.09 -1.31,10.29 -0.88,3.21 -2.25,6.01 -4.13,8.42 -1.88,2.4 -4.3,4.31 -7.25,5.71 -2.96,1.4 -6.49,2.1 -10.59,2.1 -4.26,0 -7.88,-0.74 -10.86,-2.22 -2.98,-1.48 -5.4,-3.43 -7.25,-5.86 -1.85,-2.43 -3.19,-5.25 -4.02,-8.45 -0.83,-3.21 -1.24,-6.54 -1.24,-9.99l0 -27.2 10.37 0 0 27.2c0,2.25 0.21,4.42 0.64,6.5 0.43,2.08 1.15,3.92 2.18,5.52 1.03,1.6 2.37,2.89 4.02,3.87 1.65,0.98 3.68,1.47 6.09,1.47zm44.18 -25.4l0 34.19 -10.37 0 0 -53.35 8.04 0 27.8 35.02 0 -34.94 10.37 0 0 53.27 -8.42 0 -27.43 -34.19zm43.73 7.14c0,-3.26 0.59,-6.47 1.77,-9.66 1.18,-3.18 2.89,-6.02 5.15,-8.53 2.25,-2.5 5.01,-4.53 8.27,-6.09 3.26,-1.55 6.96,-2.33 11.12,-2.33 4.91,0 9.15,1.08 12.74,3.23 3.58,2.15 6.25,4.96 8,8.42l-7.97 5.49c-0.7,-1.5 -1.55,-2.77 -2.55,-3.79 -1,-1.03 -2.08,-1.84 -3.23,-2.44 -1.15,-0.6 -2.35,-1.04 -3.61,-1.31 -1.25,-0.28 -2.48,-0.41 -3.68,-0.41 -2.6,0 -4.87,0.53 -6.8,1.58 -1.93,1.05 -3.53,2.42 -4.81,4.1 -1.28,1.68 -2.24,3.58 -2.89,5.71 -0.65,2.13 -0.98,4.25 -0.98,6.35 0,2.35 0.38,4.62 1.13,6.8 0.75,2.18 1.82,4.1 3.19,5.75 1.38,1.65 3.03,2.98 4.96,3.98 1.93,1 4.05,1.5 6.35,1.5 1.2,0 2.45,-0.15 3.76,-0.45 1.3,-0.3 2.54,-0.78 3.72,-1.43 1.18,-0.65 2.27,-1.49 3.27,-2.52 1,-1.03 1.8,-2.27 2.4,-3.72l8.49 4.88c-0.85,2 -2.07,3.77 -3.64,5.3 -1.58,1.53 -3.36,2.82 -5.34,3.87 -1.98,1.05 -4.1,1.85 -6.35,2.4 -2.25,0.55 -4.46,0.83 -6.61,0.83 -3.81,0 -7.29,-0.8 -10.44,-2.4 -3.16,-1.6 -5.87,-3.69 -8.15,-6.27 -2.28,-2.58 -4.06,-5.51 -5.33,-8.79 -1.28,-3.28 -1.92,-6.63 -1.92,-10.03zm54.78 27.05l0 -53.35 10.37 0 0 53.35 -10.37 0zm44.26 0.38c-3.91,0 -7.45,-0.76 -10.63,-2.29 -3.18,-1.53 -5.91,-3.56 -8.19,-6.09 -2.28,-2.53 -4.05,-5.42 -5.3,-8.68 -1.25,-3.26 -1.88,-6.59 -1.88,-9.99 0,-3.56 0.66,-6.96 1.99,-10.22 1.33,-3.26 3.16,-6.14 5.49,-8.64 2.33,-2.5 5.1,-4.5 8.3,-5.97 3.21,-1.48 6.69,-2.22 10.44,-2.22 3.86,0 7.38,0.79 10.56,2.37 3.18,1.58 5.9,3.64 8.15,6.2 2.25,2.55 4.01,5.46 5.26,8.72 1.25,3.26 1.88,6.56 1.88,9.92 0,3.56 -0.65,6.95 -1.95,10.18 -1.3,3.23 -3.11,6.09 -5.41,8.57 -2.3,2.48 -5.06,4.46 -8.27,5.94 -3.21,1.48 -6.69,2.22 -10.44,2.22zm-15.48 -27.05c0,2.3 0.35,4.53 1.05,6.69 0.7,2.15 1.72,4.06 3.04,5.71 1.33,1.65 2.96,2.98 4.88,3.98 1.93,1 4.12,1.5 6.57,1.5 2.5,0 4.72,-0.51 6.65,-1.54 1.93,-1.03 3.56,-2.39 4.88,-4.1 1.33,-1.7 2.33,-3.62 3.01,-5.75 0.68,-2.13 1.01,-4.3 1.01,-6.5 0,-2.3 -0.36,-4.53 -1.09,-6.69 -0.73,-2.15 -1.75,-4.06 -3.08,-5.71 -1.33,-1.65 -2.96,-2.97 -4.88,-3.94 -1.93,-0.98 -4.1,-1.47 -6.5,-1.47 -2.5,0 -4.73,0.51 -6.69,1.54 -1.95,1.03 -3.58,2.38 -4.88,4.06 -1.3,1.68 -2.29,3.58 -2.97,5.71 -0.68,2.13 -1.01,4.3 -1.01,6.5zm59.89 -7.51l0 34.19 -10.37 0 0 -53.35 8.04 0 27.8 35.02 0 -34.94 10.37 0 0 53.27 -8.42 0 -27.43 -34.19zm62.14 -19.16l9.17 0 20.29 53.35 -10.67 0 -4.96 -13.3 -18.63 0 -4.88 13.3 -10.67 0 20.36 -53.35zm11.95 32.76l-7.36 -20.96 -7.66 20.96 15.03 0zm23.37 20.59l0 -53.35 23.59 0c2.45,0 4.72,0.51 6.8,1.54 2.08,1.03 3.87,2.38 5.37,4.06 1.5,1.68 2.68,3.58 3.53,5.71 0.85,2.13 1.28,4.27 1.28,6.42 0,3.46 -0.86,6.6 -2.59,9.43 -1.73,2.83 -4.07,4.87 -7.03,6.12l12.17 20.06 -11.65 0 -10.9 -17.88 -10.22 0 0 17.88 -10.37 0zm10.37 -26.98l13 0c0.95,0 1.84,-0.23 2.67,-0.68 0.83,-0.45 1.54,-1.06 2.14,-1.84 0.6,-0.78 1.08,-1.69 1.43,-2.74 0.35,-1.05 0.53,-2.18 0.53,-3.38 0,-1.25 -0.2,-2.4 -0.6,-3.46 -0.4,-1.05 -0.94,-1.97 -1.62,-2.74 -0.68,-0.78 -1.45,-1.38 -2.33,-1.8 -0.88,-0.43 -1.77,-0.64 -2.67,-0.64l-12.55 0 0 17.28zm39.6 26.98l0 -53.35 10.37 0 0 53.35 -10.37 0zm44.26 0.38c-3.91,0 -7.45,-0.76 -10.63,-2.29 -3.18,-1.53 -5.91,-3.56 -8.19,-6.09 -2.28,-2.53 -4.05,-5.42 -5.3,-8.68 -1.25,-3.26 -1.88,-6.59 -1.88,-9.99 0,-3.56 0.66,-6.96 1.99,-10.22 1.33,-3.26 3.16,-6.14 5.49,-8.64 2.33,-2.5 5.1,-4.5 8.3,-5.97 3.21,-1.48 6.69,-2.22 10.44,-2.22 3.86,0 7.38,0.79 10.56,2.37 3.18,1.58 5.9,3.64 8.15,6.2 2.25,2.55 4.01,5.46 5.26,8.72 1.25,3.26 1.88,6.56 1.88,9.92 0,3.56 -0.65,6.95 -1.95,10.18 -1.3,3.23 -3.11,6.09 -5.41,8.57 -2.3,2.48 -5.06,4.46 -8.27,5.94 -3.21,1.48 -6.69,2.22 -10.44,2.22zm-15.48 -27.05c0,2.3 0.35,4.53 1.05,6.69 0.7,2.15 1.72,4.06 3.04,5.71 1.33,1.65 2.96,2.98 4.88,3.98 1.93,1 4.12,1.5 6.57,1.5 2.5,0 4.72,-0.51 6.65,-1.54 1.93,-1.03 3.56,-2.39 4.88,-4.1 1.33,-1.7 2.33,-3.62 3.01,-5.75 0.68,-2.13 1.01,-4.3 1.01,-6.5 0,-2.3 -0.36,-4.53 -1.09,-6.69 -0.73,-2.15 -1.75,-4.06 -3.08,-5.71 -1.33,-1.65 -2.96,-2.97 -4.88,-3.94 -1.93,-0.98 -4.1,-1.47 -6.5,-1.47 -2.5,0 -4.73,0.51 -6.69,1.54 -1.95,1.03 -3.58,2.38 -4.88,4.06 -1.3,1.68 -2.29,3.58 -2.97,5.71 -0.68,2.13 -1.01,4.3 -1.01,6.5zm81.3 -12.7c-0.35,-0.35 -0.99,-0.83 -1.92,-1.43 -0.93,-0.6 -2.05,-1.19 -3.38,-1.77 -1.33,-0.58 -2.77,-1.06 -4.32,-1.47 -1.55,-0.4 -3.13,-0.6 -4.73,-0.6 -2.86,0 -4.98,0.53 -6.39,1.58 -1.4,1.05 -2.1,2.53 -2.1,4.43 0,1.1 0.26,2.02 0.79,2.74 0.53,0.73 1.29,1.36 2.29,1.92 1,0.55 2.27,1.05 3.79,1.5 1.53,0.45 3.29,0.93 5.3,1.43 2.6,0.7 4.97,1.45 7.1,2.25 2.13,0.8 3.93,1.8 5.41,3.01 1.48,1.2 2.62,2.64 3.42,4.32 0.8,1.68 1.2,3.74 1.2,6.2 0,2.86 -0.54,5.3 -1.62,7.33 -1.08,2.03 -2.53,3.67 -4.36,4.92 -1.83,1.25 -3.93,2.17 -6.31,2.74 -2.38,0.58 -4.87,0.86 -7.48,0.86 -4.01,0 -7.97,-0.6 -11.87,-1.8 -3.91,-1.2 -7.41,-2.91 -10.52,-5.11l4.58 -8.94c0.45,0.45 1.26,1.04 2.44,1.77 1.18,0.73 2.57,1.45 4.17,2.18 1.6,0.73 3.38,1.34 5.34,1.84 1.95,0.5 3.96,0.75 6.01,0.75 5.71,0 8.57,-1.83 8.57,-5.49 0,-1.15 -0.33,-2.13 -0.98,-2.93 -0.65,-0.8 -1.58,-1.5 -2.78,-2.1 -1.2,-0.6 -2.65,-1.15 -4.36,-1.65 -1.7,-0.5 -3.61,-1.05 -5.71,-1.65 -2.55,-0.7 -4.77,-1.47 -6.65,-2.29 -1.88,-0.83 -3.44,-1.8 -4.7,-2.93 -1.25,-1.13 -2.19,-2.43 -2.82,-3.91 -0.63,-1.48 -0.94,-3.24 -0.94,-5.3 0,-2.71 0.5,-5.11 1.5,-7.21 1,-2.1 2.39,-3.86 4.17,-5.26 1.78,-1.4 3.84,-2.47 6.2,-3.19 2.35,-0.73 4.88,-1.09 7.59,-1.09 3.76,0 7.21,0.59 10.37,1.77 3.16,1.18 5.91,2.57 8.27,4.17l-4.58 8.42z"/>
 </g>
</svg>
